<?xml version="1.0" encoding="UTF-8" standalone="no"?>
<svg

   xmlns="http://www.w3.org/2000/svg"
   id="svg8"
   version="1.1"
   viewBox="0 0 6.6145835 6.6145835"
   height="6.6145835mm"
   width="6.6145835mm">
  <defs
     id="defs2" />

  <g
     transform="translate(-94.734268,-89.532518)"
     id="layer1">
    <g
       id="g858">
      <g
         id="g853"
         transform="matrix(0.13234625,0,0,0.13234626,82.196543,83.422392)"
         style="stroke-width:7.55593729">
        <path
           transform="scale(0.26458333)"
           id="rect841"
           d="m 358.05078,174.49219 v 188.89843 c 188.89844,0 159.31083,0 188.89844,0 V 174.49219 Z"
           style="opacity:1;fill:#999999;fill-opacity:0.52733118;stroke:none;stroke-width:15.11187172;stroke-linecap:butt;stroke-linejoin:miter;stroke-miterlimit:4;stroke-dasharray:none;stroke-dashoffset:0;stroke-opacity:1;paint-order:markers fill stroke" />
        <path
           id="path847"
           transform="scale(0.26458333)"
           d="m 449.82227,210.80469 a 33.75,33.75 0 0 0 -3.36915,0.16797 33.75,33.75 0 0 0 -3.33593,0.5039 33.75,33.75 0 0 0 -3.26953,0.83594 33.75,33.75 0 0 0 -3.16797,1.15625 33.75,33.75 0 0 0 -3.03711,1.4668 33.75,33.75 0 0 0 -2.87696,1.76367 33.75,33.75 0 0 0 -2.68554,2.04297 33.75,33.75 0 0 0 -2.46875,2.29883 33.75,33.75 0 0 0 -2.22656,2.53515 33.75,33.75 0 0 0 -1.96289,2.74414 33.75,33.75 0 0 0 -1.67774,2.92578 33.75,33.75 0 0 0 -1.37891,3.07813 33.75,33.75 0 0 0 -1.0625,3.20312 33.75,33.75 0 0 0 -0.74023,3.29102 33.75,33.75 0 0 0 -0.40625,3.34961 33.75,33.75 0 0 0 -0.084,2.38672 33.75,33.75 0 0 0 0.16796,3.36914 33.75,33.75 0 0 0 0.50391,3.33594 33.75,33.75 0 0 0 0.83594,3.26953 33.75,33.75 0 0 0 1.15625,3.16797 33.75,33.75 0 0 0 1.46679,3.03711 33.75,33.75 0 0 0 1.76368,2.87695 33.75,33.75 0 0 0 2.04297,2.68555 33.75,33.75 0 0 0 2.29882,2.46874 33.75,33.75 0 0 0 2.53516,2.22657 33.75,33.75 0 0 0 2.74414,1.96289 33.75,33.75 0 0 0 2.92578,1.67773 33.75,33.75 0 0 0 3.07813,1.37891 33.75,33.75 0 0 0 3.20312,1.0625 33.75,33.75 0 0 0 3.29102,0.74023 33.75,33.75 0 0 0 3.34961,0.40625 33.75,33.75 0 0 0 2.38672,0.084 33.75,33.75 0 0 0 3.36914,-0.16797 33.75,33.75 0 0 0 3.33593,-0.50391 33.75,33.75 0 0 0 3.26954,-0.83593 33.75,33.75 0 0 0 3.16796,-1.15626 33.75,33.75 0 0 0 3.03711,-1.46679 33.75,33.75 0 0 0 2.87696,-1.76367 33.75,33.75 0 0 0 2.68554,-2.04297 33.75,33.75 0 0 0 2.46875,-2.29883 33.75,33.75 0 0 0 2.22657,-2.53516 33.75,33.75 0 0 0 1.96289,-2.74414 33.75,33.75 0 0 0 1.67773,-2.92578 33.75,33.75 0 0 0 1.37891,-3.07812 33.75,33.75 0 0 0 1.0625,-3.20313 33.75,33.75 0 0 0 0.74023,-3.29101 33.75,33.75 0 0 0 0.40625,-3.34961 33.75,33.75 0 0 0 0.084,-2.38672 33.75,33.75 0 0 0 -0.16797,-3.36914 33.75,33.75 0 0 0 -0.50391,-3.33594 33.75,33.75 0 0 0 -0.83594,-3.26953 33.75,33.75 0 0 0 -1.15625,-3.16797 33.75,33.75 0 0 0 -1.46679,-3.03711 33.75,33.75 0 0 0 -1.76368,-2.87695 33.75,33.75 0 0 0 -2.04296,-2.68555 33.75,33.75 0 0 0 -2.29883,-2.46875 33.75,33.75 0 0 0 -2.53516,-2.22656 33.75,33.75 0 0 0 -2.74414,-1.96289 33.75,33.75 0 0 0 -2.92578,-1.67774 33.75,33.75 0 0 0 -3.07813,-1.3789 33.75,33.75 0 0 0 -3.20312,-1.0625 33.75,33.75 0 0 0 -3.29102,-0.74024 33.75,33.75 0 0 0 -3.34961,-0.40625 33.75,33.75 0 0 0 -2.38671,-0.084 z M 452.5,291.16211 a 69.642859,38.571432 0 0 0 -6.95312,0.19336 69.642859,38.571432 0 0 0 -6.88282,0.57617 69.642859,38.571432 0 0 0 -6.74414,0.95313 69.642859,38.571432 0 0 0 -6.54101,1.32226 69.642859,38.571432 0 0 0 -6.26758,1.67774 69.642859,38.571432 0 0 0 -5.93555,2.01367 69.642859,38.571432 0 0 0 -5.54101,2.33398 69.642859,38.571432 0 0 0 -5.09375,2.62891 69.642859,38.571432 0 0 0 -4.59375,2.89648 69.642859,38.571432 0 0 0 -4.04883,3.13477 69.642859,38.571432 0 0 0 -3.46485,3.3457 69.642859,38.571432 0 0 0 -2.84375,3.51953 69.642859,38.571432 0 0 0 -2.19531,3.65821 69.642859,38.571432 0 0 0 -1.52344,3.76171 69.642859,38.571432 0 0 0 -0.83984,3.82813 69.642859,38.571432 0 0 0 -0.17383,2.72852 v 33.65624 h 139.28516 v -33.65624 a 69.642859,38.571432 0 0 0 -0.34766,-3.85157 69.642859,38.571432 0 0 0 -1.04101,-3.81054 69.642859,38.571432 0 0 0 -1.72071,-3.73633 69.642859,38.571432 0 0 0 -2.38672,-3.6211 69.642859,38.571432 0 0 0 -3.02929,-3.47265 69.642859,38.571432 0 0 0 -3.63867,-3.28711 69.642859,38.571432 0 0 0 -4.2129,-3.06836 69.642859,38.571432 0 0 0 -4.74414,-2.82227 69.642859,38.571432 0 0 0 -5.23046,-2.54492 69.642859,38.571432 0 0 0 -5.66211,-2.24219 69.642859,38.571432 0 0 0 -6.03907,-1.91796 69.642859,38.571432 0 0 0 -6.35351,-1.57618 69.642859,38.571432 0 0 0 -6.60547,-1.21484 69.642859,38.571432 0 0 0 -6.79297,-0.8457 69.642859,38.571432 0 0 0 -6.91016,-0.46485 69.642859,38.571432 0 0 0 -4.92773,-0.0957 z"
           style="opacity:1;fill:#ffffff;fill-opacity:1;stroke:none;stroke-width:15.11187172;stroke-linecap:butt;stroke-linejoin:miter;stroke-miterlimit:4;stroke-dasharray:none;stroke-dashoffset:0;stroke-opacity:1;paint-order:markers fill stroke" />
      </g>
    </g>
  </g>
</svg>
