<?xml version="1.0" encoding="UTF-8"?>
<svg enable-background="new 0 0 55.867 55.867" version="1.1" viewBox="0 0 55.867 55.867" xml:space="preserve" xmlns="http://www.w3.org/2000/svg">
<path d="m12.071 53.293c-0.19725 0-0.39451-0.06098-0.56031-0.18199-0.2935-0.21344-0.44025-0.57456-0.37831-0.93187l2.9455-17.168-12.475-12.157c-0.25919-0.25345-0.35258-0.63173-0.24109-0.9757 0.11244-0.34492 0.41071-0.59647 0.76995-0.64888l17.238-2.505 7.71-15.62c0.16009-0.32587 0.4917-0.53168 0.85381-0.53168 0.36306 0 0.69467 0.20581 0.85381 0.53168l7.7091 15.62 17.239 2.505c0.35925 0.05241 0.65656 0.303 0.76995 0.64888 0.11149 0.34397 0.01906 0.7232-0.24109 0.9757l-12.475 12.159 2.9445 17.167c0.06099 0.35731-0.08576 0.71844-0.37831 0.93187-0.2935 0.21534-0.68324 0.24297-1.0044 0.07241l-15.418-8.1048-15.42 8.1048c-0.13913 0.07241-0.29159 0.10862-0.4431 0.10862z" fill="none" stroke="#fc0" stroke-width="2" style="paint-order:markers fill stroke"/>
</svg>